<mxfile host="app.diagrams.net" agent="Mozilla/5.0 (Macintosh; Intel Mac OS X 10_15_7) AppleWebKit/537.36 (KHTML, like Gecko) Chrome/134.0.0.0 Safari/537.36" version="26.1.3">
  <diagram name="Page-1" id="0RVnKqvmyFpKE5_oKeQF">
    <mxGraphModel dx="1026" dy="622" grid="1" gridSize="10" guides="1" tooltips="1" connect="1" arrows="1" fold="1" page="1" pageScale="1" pageWidth="827" pageHeight="1169" math="0" shadow="0">
      <root>
        <mxCell id="0" />
        <mxCell id="1" parent="0" />
        <mxCell id="hpQGZ7WMHNTYom6Jj5dx-2" value="API Gateway" style="shape=folder;fontStyle=1;tabWidth=110;tabHeight=30;tabPosition=left;html=1;boundedLbl=1;labelInHeader=1;container=1;collapsible=0;recursiveResize=0;whiteSpace=wrap;" vertex="1" parent="1">
          <mxGeometry x="100" y="80" width="150" height="100" as="geometry" />
        </mxCell>
        <mxCell id="hpQGZ7WMHNTYom6Jj5dx-3" value="Apache APISIX" style="html=1;whiteSpace=wrap;" vertex="1" parent="hpQGZ7WMHNTYom6Jj5dx-2">
          <mxGeometry width="110" height="30" relative="1" as="geometry">
            <mxPoint x="20" y="50" as="offset" />
          </mxGeometry>
        </mxCell>
        <mxCell id="hpQGZ7WMHNTYom6Jj5dx-6" value="Compute" style="shape=folder;fontStyle=1;tabWidth=110;tabHeight=30;tabPosition=left;html=1;boundedLbl=1;labelInHeader=1;container=1;collapsible=0;recursiveResize=0;whiteSpace=wrap;" vertex="1" parent="1">
          <mxGeometry x="414" y="180" width="150" height="280" as="geometry" />
        </mxCell>
        <mxCell id="hpQGZ7WMHNTYom6Jj5dx-7" value="Nuclio Functions" style="html=1;whiteSpace=wrap;" vertex="1" parent="hpQGZ7WMHNTYom6Jj5dx-6">
          <mxGeometry width="110" height="30" relative="1" as="geometry">
            <mxPoint x="20" y="50" as="offset" />
          </mxGeometry>
        </mxCell>
        <mxCell id="hpQGZ7WMHNTYom6Jj5dx-8" value="Nuclio Functions" style="html=1;whiteSpace=wrap;" vertex="1" parent="hpQGZ7WMHNTYom6Jj5dx-6">
          <mxGeometry x="20" y="110" width="110" height="30" as="geometry" />
        </mxCell>
      </root>
    </mxGraphModel>
  </diagram>
</mxfile>
